<?xml version="1.0" encoding="iso-8859-1"?>
<!-- Generator: Adobe Illustrator 18.1.1, SVG Export Plug-In . SVG Version: 6.00 Build 0)  -->
<svg version="1.1" id="Capa_1" xmlns="http://www.w3.org/2000/svg" xmlns:xlink="http://www.w3.org/1999/xlink" x="0px" y="0px"
	 viewBox="0 0 28.048 28.048" style="enable-background:new 0 0 28.048 28.048;" xml:space="preserve">
<g>
	<path d="M25.817,0.433H2.23C0.996,0.433,0,1.451,0,2.699v22.654c0,1.25,0.996,2.262,2.23,2.262h23.587
		c1.231,0,2.231-1.012,2.231-2.262V2.699C28.048,1.451,27.048,0.433,25.817,0.433z M26.371,4.054v8.598H9.667V2.06h14.739
		C25.49,2.06,26.371,2.954,26.371,4.054z M1.678,23.995V4.054c0-1.1,0.878-1.994,1.964-1.994h3.851v23.93H3.642
		C2.556,25.99,1.678,25.097,1.678,23.995z M24.406,25.99H9.667V14.908h16.704v9.088C26.371,25.097,25.49,25.99,24.406,25.99z"/>
	<g>
	</g>
	<g>
	</g>
	<g>
	</g>
	<g>
	</g>
	<g>
	</g>
	<g>
	</g>
	<g>
	</g>
	<g>
	</g>
	<g>
	</g>
	<g>
	</g>
	<g>
	</g>
	<g>
	</g>
	<g>
	</g>
	<g>
	</g>
	<g>
	</g>
</g>
<g>
</g>
<g>
</g>
<g>
</g>
<g>
</g>
<g>
</g>
<g>
</g>
<g>
</g>
<g>
</g>
<g>
</g>
<g>
</g>
<g>
</g>
<g>
</g>
<g>
</g>
<g>
</g>
<g>
</g>
</svg>
