<svg xmlns="http://www.w3.org/2000/svg" viewBox="0 0 384 512" width="384" height="512">
	<style>
		tspan { white-space:pre }
		.shp0 { fill: #e74c3c } 
		.shp1 { fill: #ffffff } 
	</style>
	<path id="Layer" class="shp0" d="M172.27 501.67C26.97 291.03 0 269.41 0 192C0 85.96 85.96 0 192 0C298.04 0 384 85.96 384 192C384 269.41 357.03 291.03 211.73 501.67C202.2 515.44 181.8 515.44 172.27 501.67Z" />
	<path id="Layer" fill-rule="evenodd" class="shp1" d="M300 131.2L300 282.4L84 282.4L84 88L192 88L192 131.2L300 131.2ZM127.2 239.2L105.6 239.2L105.6 260.8L127.2 260.8L127.2 239.2ZM127.2 196L105.6 196L105.6 217.6L127.2 217.6L127.2 196ZM127.2 152.8L105.6 152.8L105.6 174.4L127.2 174.4L127.2 152.8ZM127.2 109.6L105.6 109.6L105.6 131.2L127.2 131.2L127.2 109.6ZM170.4 239.2L148.8 239.2L148.8 260.8L170.4 260.8L170.4 239.2ZM170.4 196L148.8 196L148.8 217.6L170.4 217.6L170.4 196ZM170.4 152.8L148.8 152.8L148.8 174.4L170.4 174.4L170.4 152.8ZM170.4 109.6L148.8 109.6L148.8 131.2L170.4 131.2L170.4 109.6ZM278.4 152.8L192 152.8L192 174.4L213.6 174.4L213.6 196L192 196L192 217.6L213.6 217.6L213.6 239.2L192 239.2L192 260.8L278.4 260.8L278.4 152.8ZM256.8 196L235.2 196L235.2 174.4L256.8 174.4L256.8 196ZM256.8 239.2L235.2 239.2L235.2 217.6L256.8 217.6L256.8 239.2Z" />
</svg>